<svg xmlns="http://www.w3.org/2000/svg" xmlns:xlink="http://www.w3.org/1999/xlink" contentStyleType="text/css" data-diagram-type="DESCRIPTION" height="197px" preserveAspectRatio="none" style="width:1209px;height:197px;background:#FFFFFF;" version="1.1" viewBox="0 0 1209 197" width="1209px" zoomAndPan="magnify"><defs/><g><!--cluster Sistema--><g class="cluster" data-entity="Sistema" data-source-line="6" data-uid="ent0003" id="cluster_Sistema"><rect fill="none" height="184" rx="2.5" ry="2.5" style="stroke:#181818;stroke-width:1;" width="1099.82" x="103.2" y="7"/><text fill="#000000" font-family="sans-serif" font-size="14" font-weight="bold" lengthAdjust="spacing" textLength="63.4375" x="621.3913" y="21.9951">Sistema</text></g><!--entity UC_Login--><g class="entity" data-entity="UC_Login" data-source-line="7" data-uid="ent0004" id="entity_UC_Login"><ellipse cx="364.6719" cy="111.0004" fill="#F1F1F1" rx="67.0519" ry="15.8104" style="stroke:#181818;stroke-width:0.5;"/><text fill="#000000" font-family="sans-serif" font-size="14" lengthAdjust="spacing" textLength="98.8477" x="315.248" y="115.6488">Realizar Login</text></g><!--entity UC_CriarConta--><g class="entity" data-entity="UC_CriarConta" data-source-line="8" data-uid="ent0005" id="entity_UC_CriarConta"><ellipse cx="178.4067" cy="141.0036" fill="#F1F1F1" rx="59.2067" ry="14.5236" style="stroke:#181818;stroke-width:0.5;"/><text fill="#000000" font-family="sans-serif" font-size="14" lengthAdjust="spacing" textLength="79.4883" x="138.6626" y="145.6521">Criar Conta</text></g><!--entity UC_CriarProjeto--><g class="entity" data-entity="UC_CriarProjeto" data-source-line="9" data-uid="ent0006" id="entity_UC_CriarProjeto"><ellipse cx="554.5128" cy="67.9986" fill="#F1F1F1" rx="62.7928" ry="14.9586" style="stroke:#181818;stroke-width:0.5;"/><text fill="#000000" font-family="sans-serif" font-size="14" lengthAdjust="spacing" textLength="87.5273" x="510.7492" y="72.647">Criar Projeto</text></g><!--entity UC_AcessarProjeto--><g class="entity" data-entity="UC_AcessarProjeto" data-source-line="10" data-uid="ent0007" id="entity_UC_AcessarProjeto"><ellipse cx="748.1881" cy="109.9956" fill="#F1F1F1" rx="70.8781" ry="16.5756" style="stroke:#181818;stroke-width:0.5;"/><text fill="#000000" font-family="sans-serif" font-size="14" lengthAdjust="spacing" textLength="108.582" x="693.8971" y="114.6441">Acessar Projeto</text></g><!--entity UC_AlterarProjeto--><g class="entity" data-entity="UC_AlterarProjeto" data-source-line="11" data-uid="ent0008" id="entity_UC_AlterarProjeto"><ellipse cx="947.124" cy="111.0008" fill="#F1F1F1" rx="68.054" ry="16.0108" style="stroke:#181818;stroke-width:0.5;"/><text fill="#000000" font-family="sans-serif" font-size="14" lengthAdjust="spacing" textLength="101.4316" x="896.4082" y="115.6492">Alterar Projeto</text></g><!--entity UC_SalvarLocal--><g class="entity" data-entity="UC_SalvarLocal" data-source-line="13" data-uid="ent0009" id="entity_UC_SalvarLocal"><ellipse cx="1131.0955" cy="65.9994" fill="#F1F1F1" rx="55.9255" ry="24.0994" style="stroke:#181818;stroke-width:0.5;"/><text fill="#000000" font-family="sans-serif" font-size="14" lengthAdjust="spacing" textLength="43.9756" x="1109.1077" y="59.6039">Salvar</text><text fill="#000000" font-family="sans-serif" font-size="14" lengthAdjust="spacing" textLength="81.7578" x="1090.2166" y="75.9008">Localmente</text></g><!--entity UC_SalvarNuvem--><g class="entity" data-entity="UC_SalvarNuvem" data-source-line="14" data-uid="ent0010" id="entity_UC_SalvarNuvem"><ellipse cx="1131.1008" cy="150.0019" fill="#F1F1F1" rx="46.6008" ry="24.5719" style="stroke:#181818;stroke-width:0.5;"/><text fill="#000000" font-family="sans-serif" font-size="14" lengthAdjust="spacing" textLength="65.8779" x="1098.1618" y="148.6652">Salvar na</text><text fill="#000000" font-family="sans-serif" font-size="14" lengthAdjust="spacing" textLength="45.1172" x="1108.5422" y="164.962">Nuven</text></g><!--entity Usuario--><g class="entity" data-entity="Usuario" data-source-line="4" data-uid="ent0002" id="entity_Usuario"><ellipse cx="32.6021" cy="77.35" fill="#F1F1F1" rx="8" ry="8" style="stroke:#181818;stroke-width:0.5;"/><path d="M32.6021,85.35 L32.6021,112.35 M19.6021,93.35 L45.6021,93.35 M32.6021,112.35 L19.6021,127.35 M32.6021,112.35 L45.6021,127.35" fill="none" style="stroke:#181818;stroke-width:0.5;"/><text fill="#000000" font-family="sans-serif" font-size="14" lengthAdjust="spacing" textLength="53.2041" x="6" y="141.8451">Usu&#225;rio</text></g><!--link Usuario to UC_Login--><g class="link" data-entity-1="Usuario" data-entity-2="UC_Login" data-source-line="18" data-uid="lnk11" id="link_Usuario_UC_Login"><path d="M59.5,103.01 C112.92,103.01 227.5,103.01 300.08,103.01" fill="none" id="Usuario-to-UC_Login" style="stroke:#181818;stroke-width:1;"/><polygon fill="#181818" points="306.08,103.01,297.08,99.01,301.08,103.01,297.08,107.01,306.08,103.01" style="stroke:#181818;stroke-width:1;"/></g><!--link Usuario to UC_CriarConta--><g class="link" data-entity-1="Usuario" data-entity-2="UC_CriarConta" data-source-line="19" data-uid="lnk12" id="link_Usuario_UC_CriarConta"><path d="M59.69,135.81 C77.31,135.81 94.94,135.81 116.48,135.81" fill="none" id="Usuario-to-UC_CriarConta" style="stroke:#181818;stroke-width:1;"/><polygon fill="#181818" points="122.48,135.81,113.48,131.81,117.48,135.81,113.48,139.81,122.48,135.81" style="stroke:#181818;stroke-width:1;"/></g><!--link UC_Login to UC_AcessarProjeto--><g class="link" data-entity-1="UC_Login" data-entity-2="UC_AcessarProjeto" data-source-line="20" data-uid="lnk13" id="link_UC_Login_UC_AcessarProjeto"><path d="M428.43,116.11 C498.51,116.11 604.55,116.11 675.7,116.11" fill="none" id="UC_Login-to-UC_AcessarProjeto" style="stroke:#181818;stroke-width:1;"/><polygon fill="#181818" points="681.7,116.11,672.7,112.11,676.7,116.11,672.7,120.11,681.7,116.11" style="stroke:#181818;stroke-width:1;"/></g><!--link UC_Login to UC_CriarProjeto--><g class="link" data-entity-1="UC_Login" data-entity-2="UC_CriarProjeto" data-source-line="21" data-uid="lnk14" id="link_UC_Login_UC_CriarProjeto"><path d="M365.02,95.1 C365.02,85.81 365.02,75.91 365.02,75.91 C365.02,75.91 438.22,75.91 494.21,75.91" fill="none" id="UC_Login-to-UC_CriarProjeto" style="stroke:#181818;stroke-width:1;"/><polygon fill="#181818" points="500.21,75.91,491.21,71.91,495.21,75.91,491.21,79.91,500.21,75.91" style="stroke:#181818;stroke-width:1;"/></g><!--link UC_CriarProjeto to UC_AcessarProjeto--><g class="link" data-entity-1="UC_CriarProjeto" data-entity-2="UC_AcessarProjeto" data-source-line="22" data-uid="lnk15" id="link_UC_CriarProjeto_UC_AcessarProjeto"><path d="M555.02,83.31 C555.02,93.74 555.02,105.65 555.02,105.65 C555.02,105.65 617.79,105.65 673.27,105.65" fill="none" id="UC_CriarProjeto-to-UC_AcessarProjeto" style="stroke:#181818;stroke-width:1;"/><polygon fill="#181818" points="679.27,105.65,670.27,101.65,674.27,105.65,670.27,109.65,679.27,105.65" style="stroke:#181818;stroke-width:1;"/></g><!--link UC_AcessarProjeto to UC_AlterarProjeto--><g class="link" data-entity-1="UC_AcessarProjeto" data-entity-2="UC_AlterarProjeto" data-source-line="23" data-uid="lnk16" id="link_UC_AcessarProjeto_UC_AlterarProjeto"><path d="M819.44,110.78 C838.73,110.78 853.56,110.78 872.69,110.78" fill="none" id="UC_AcessarProjeto-to-UC_AlterarProjeto" style="stroke:#181818;stroke-width:1;"/><polygon fill="#181818" points="878.69,110.78,869.69,106.78,873.69,110.78,869.69,114.78,878.69,110.78" style="stroke:#181818;stroke-width:1;"/></g><!--link UC_AlterarProjeto to UC_SalvarNuvem--><g class="link" data-entity-1="UC_AlterarProjeto" data-entity-2="UC_SalvarNuvem" data-source-line="24" data-uid="lnk17" id="link_UC_AlterarProjeto_UC_SalvarNuvem"><path d="M1015.33,110.21 C1062.21,110.21 1116.02,110.21 1116.02,110.21 C1116.02,110.21 1116.02,111.82 1116.02,120.39" fill="none" id="UC_AlterarProjeto-to-UC_SalvarNuvem" style="stroke:#181818;stroke-width:1;"/><polygon fill="#181818" points="1116.02,126.39,1120.02,117.39,1116.02,121.39,1112.02,117.39,1116.02,126.39" style="stroke:#181818;stroke-width:1;"/></g><!--link UC_Login to UC_CriarConta--><g class="link" data-entity-1="UC_Login" data-entity-2="UC_CriarConta" data-source-line="27" data-uid="lnk18" id="link_UC_Login_UC_CriarConta"><path d="M305.33,118.65 C257.8,118.65 199.02,118.65 199.02,118.65 C199.02,118.65 199.02,116.49 199.02,120.98" fill="none" id="UC_Login-to-UC_CriarConta" style="stroke:#181818;stroke-width:1;"/><polygon fill="#181818" points="199.02,126.98,203.02,117.98,199.02,121.98,195.02,117.98,199.02,126.98" style="stroke:#181818;stroke-width:1;"/><text fill="#000000" font-family="sans-serif" font-size="13" lengthAdjust="spacing" textLength="61.1851" x="186.02" y="114.7169">&#171;extend&#187;</text></g><!--link UC_CriarConta to UC_Login--><g class="link" data-entity-1="UC_CriarConta" data-entity-2="UC_Login" data-source-line="28" data-uid="lnk19" id="link_UC_CriarConta_UC_Login"><path d="M159.02,126.98 C159.02,119.1 159.02,110.83 159.02,110.83 C159.02,110.83 231.36,110.83 291.33,110.83" fill="none" id="UC_CriarConta-to-UC_Login" style="stroke:#181818;stroke-width:1;"/><polygon fill="#181818" points="297.33,110.83,288.33,106.83,292.33,110.83,288.33,114.83,297.33,110.83" style="stroke:#181818;stroke-width:1;"/><text fill="#000000" font-family="sans-serif" font-size="13" lengthAdjust="spacing" textLength="61.1851" x="221.11" y="106.8969">&#171;extend&#187;</text></g><!--link UC_CriarConta to UC_SalvarNuvem--><g class="link" data-entity-1="UC_CriarConta" data-entity-2="UC_SalvarNuvem" data-source-line="29" data-uid="lnk20" id="link_UC_CriarConta_UC_SalvarNuvem"><path d="M238.01,141.27 C414.59,141.27 926.38,141.27 1081.01,141.27" fill="none" id="UC_CriarConta-to-UC_SalvarNuvem" style="stroke:#181818;stroke-width:1;"/><polygon fill="#181818" points="1087.01,141.27,1078.01,137.27,1082.01,141.27,1078.01,145.27,1087.01,141.27" style="stroke:#181818;stroke-width:1;"/><text fill="#000000" font-family="sans-serif" font-size="13" lengthAdjust="spacing" textLength="61.1851" x="600.51" y="154.3369">&#171;extend&#187;</text></g><!--link UC_SalvarNuvem to UC_SalvarLocal--><g class="link" data-entity-1="UC_SalvarNuvem" data-entity-2="UC_SalvarLocal" data-source-line="30" data-uid="lnk21" id="link_UC_SalvarNuvem_UC_SalvarLocal"><path d="M1147.02,126.6 C1147.02,115.05 1147.02,107.14 1147.02,95.56" fill="none" id="UC_SalvarNuvem-to-UC_SalvarLocal" style="stroke:#181818;stroke-width:1;"/><polygon fill="#181818" points="1147.02,89.56,1143.02,98.56,1147.02,94.56,1151.02,98.56,1147.02,89.56" style="stroke:#181818;stroke-width:1;"/><text fill="#000000" font-family="sans-serif" font-size="13" lengthAdjust="spacing" textLength="61.1851" x="1085.02" y="121.1469">&#171;extend&#187;</text></g><!--SRC=[ZPD1JiCm44NtFiKe6s0HiKTL9LIngn1gnQuI6YL3Qt36bUsM0k8mh3W19-Z5S1n7s4cHsCLlthSoNucYHmTEWv7hZODQ6ggSr2pii-Gj6cn0IIRtkYNGncsq45WvRQ2ujxlZfv6w0BJW3-YVXMZZo6j5K2obTTHW0Uy2O6UfGklfWb39DpGmrsl9NNZs40wfDZFIEpFD3dide436uftHJ-HqfaQMojSLMJlM8puLK8xCYK27-q2QMABQerdnN5Ue6c97VQYR13uE0EEARtTxubnlKIC-X3Y3iYnXGGgFNyTlic08fMsXYENxv-blbmEObDShSJ9OVZ3DcXoS_xmW9xsMTpOYKKlNZalV71on3KjV0XqgYWsSD-ZhvLgNlZ4bcotQYwwGk0EKjNxXOG5m1PC9jNVMqwd8HqcWk-5_RlBIeqGwAyDVbcR2vv1bVW00]--></g></svg>